<svg width="24" height="17" viewBox="0 0 24 17" fill="none" xmlns="http://www.w3.org/2000/svg">
<path fill-rule="evenodd" clip-rule="evenodd" d="M2.09121 14.014C2.99221 10.007 7.0272 6.018 12.0462 6.018C16.5722 6.018 20.7292 9.811 21.8912 14.014C21.8912 14.014 7.06621 14.022 2.09121 14.014ZM3.34421 7.014C3.84321 5.77 3.36221 4.459 4.40821 4.279C4.7382 4.221 5.9382 4.284 6.4832 4.203C7.3202 4.08 7.80921 3.77 8.3182 3.185C9.07121 2.275 9.24121 1.625 10.2662 2.237C11.2472 2.855 12.0262 3.388 13.2582 3.081C14.6232 2.74 15.2852 1.311 15.9432 2.397C16.8612 3.99 16.9722 4.279 19.4432 4.567C20.6122 4.728 20.6642 5.966 20.8132 7.222C20.9412 8.056 21.5892 9.063 22.0622 9.766C19.7892 6.411 16.2302 4.096 12.1272 4.017C7.9752 3.995 4.29921 6.193 2.03321 9.416C2.04921 9.394 3.03121 7.793 3.34421 7.014ZM23.2672 11.926L23.2712 11.934C23.6952 11.283 23.9912 10.572 23.9572 9.782C23.9152 8.85 23.4912 8.298 23.0282 7.523C22.7392 7.018 22.8042 6.909 22.7162 6.262C22.6552 5.8 22.5732 5.337 22.4232 4.894C21.6672 2.676 20.0502 2.628 18.9122 2.511C18.3602 2.443 18.2212 2.315 18.0702 2.095C17.6682 1.497 17.6562 1.167 17.0972 0.657C16.6212 0.225 15.9952 0 15.3752 0C14.4792 0 13.9502 0.415 13.2462 0.898C12.7902 1.201 12.5372 1.29 11.9092 0.915C11.1012 0.418 10.5982 0 9.5962 0C8.3392 0 7.7022 0.686 6.9962 1.632C6.6222 2.139 6.54521 2.241 5.7462 2.253C4.7462 2.255 2.90521 2.006 2.01421 3.835C1.70921 4.46 1.68121 5.026 1.59121 5.713C1.49421 6.447 1.43821 6.45 1.11321 6.926C0.504205 7.832 -0.0117948 8.867 0.000205188 9.963C0.00820519 10.642 0.220205 11.295 0.676205 11.875C0.987205 11.088 0.0182052 13.302 0.0182052 14.5C0.0182052 15.441 0.520205 15.957 1.75221 16.012C2.20221 16.019 20.4592 16.03 22.1442 16.012C23.3212 15.966 23.9862 15.242 23.9862 14.365C23.9862 13.773 23.4972 12.463 23.2672 11.926Z" fill="white"/>
</svg>
