<svg width="71" height="68" viewBox="0 0 71 68" fill="#f0f0f0" xmlns="http://www.w3.org/2000/svg">
<path d="M14.0586 17.4114H60.2945C61.2314 17.4115 62.1579 17.6078 63.0142 17.9878C63.8705 18.3678 64.6377 18.923 65.2663 19.6177C65.895 20.3123 66.3711 21.131 66.6639 22.0209C66.9568 22.9108 67.06 23.8522 66.9667 24.7844L64.955 44.9015C64.7896 46.5562 64.0152 48.0904 62.7823 49.2062C61.5493 50.3221 59.9457 50.94 58.2828 50.94H26.263C24.7122 50.9407 23.2091 50.4037 22.0097 49.4207C20.8103 48.4377 19.9886 47.0694 19.6847 45.5486L14.0586 17.4114Z" stroke="#ECAA37" stroke-width="6.70572" stroke-linejoin="round"/>
<path d="M50.9401 64.3515H57.6458M14.0586 17.4114L11.3428 6.53812C11.1611 5.81307 10.7424 5.16951 10.1532 4.70965C9.56395 4.2498 8.83794 4.00002 8.09049 4H4L14.0586 17.4114ZM24.1172 64.3515H30.8229H24.1172Z" stroke="#ECAA37" stroke-width="6.70572" stroke-linecap="round" stroke-linejoin="round"/>
</svg>
