<svg width="238" height="211" viewBox="0 0 238 211" fill="none" xmlns="http://www.w3.org/2000/svg">
<path d="M178.58 73.2822C181.996 74.4375 183.789 69.1356 180.372 67.9804C176.963 66.8274 175.163 72.127 178.58 73.2822ZM92.8807 43.3893C96.2943 44.5436 98.0934 39.241 94.6744 38.0848C91.2635 36.9314 89.4644 42.2341 92.8807 43.3893ZM72.6968 59.0255C76.1078 60.179 77.9068 54.8763 74.4906 53.721C71.0763 52.5665 69.2779 57.8694 72.6968 59.0255ZM115.01 61.3194C118.42 62.4724 120.226 57.175 116.803 56.0175C113.393 54.8645 111.594 60.1641 115.01 61.3194ZM131.474 42.4568C134.89 43.612 136.684 38.3076 133.268 37.1523C129.858 35.9994 128.058 41.3016 131.474 42.4568ZM165.729 91.6322C169.145 92.7875 170.946 87.4852 167.523 86.3277C164.113 85.1748 162.313 90.477 165.729 91.6322ZM158.121 57.8856C161.531 59.0386 163.331 53.7363 159.915 52.5811C156.499 51.4259 154.698 56.7281 158.121 57.8856ZM141.745 36.9758C99.1924 22.5863 57.3634 32.206 48.4991 58.4198L47.7274 60.6976C46.8327 63.3432 48.2568 66.2225 50.9024 67.1171L195.657 116.067C198.298 116.96 201.178 115.536 202.072 112.89L202.843 110.612C211.707 84.3982 184.299 51.3656 141.748 36.9767L141.745 36.9758ZM193.863 121.362L49.1087 72.4128C43.5454 70.5315 40.5489 64.4718 42.4308 58.9065L43.2012 56.6283C48.0532 42.28 61.3289 31.8353 80.5776 27.2224C99.3655 22.7201 121.721 24.3024 143.536 31.6793C165.352 39.0562 184.082 51.367 196.28 66.3478C208.781 81.6971 212.989 98.0539 208.137 112.402L207.366 114.68C205.484 120.246 199.424 123.243 193.863 121.362V121.362ZM204.668 135.203C205.111 135.051 204.956 135.116 204.478 135.242C203.799 135.418 203.117 135.579 202.425 135.706C200.37 136.067 198.24 136.128 196.172 135.783C193.098 135.275 190.28 133.835 188.061 131.646C185.548 129.173 184.028 125.966 181.371 123.592C175.845 118.64 167.569 117.346 160.723 120.247C160.648 120.273 160.542 120.304 160.404 120.339C159.725 120.515 159.044 120.675 158.351 120.803C156.297 121.163 154.159 121.222 152.099 120.879C149.024 120.371 146.206 118.931 143.988 116.742C141.474 114.269 139.948 111.06 137.297 108.688C131.771 103.736 123.496 102.442 116.649 105.343C116.574 105.369 116.468 105.4 116.331 105.435C115.651 105.611 114.963 105.769 114.271 105.897C112.216 106.257 110.085 106.318 108.025 105.976C104.951 105.467 102.126 104.025 99.9073 101.836C97.3941 99.3632 95.8741 96.1564 93.2234 93.7845C87.6935 88.8306 79.4158 87.5365 72.5755 90.4395C72.4976 90.4648 72.392 90.4955 72.2535 90.5298C71.5723 90.7052 70.8922 90.8662 70.1952 90.9921C68.1424 91.3529 66.007 91.4129 63.9471 91.0704C60.8735 90.5622 58.0499 89.1205 55.8329 86.9321C53.3229 84.4603 51.7997 81.2523 49.1464 78.8795C43.5799 73.8985 35.2316 72.6101 28.366 75.5857C25.0524 77.0252 27.5501 82.0309 30.8495 80.6013C32.9479 79.6951 36.0647 79.3842 38.5461 79.7585C45.7904 80.836 47.9608 87.4647 52.8655 91.7866C58.813 97.0219 67.5622 98.1655 74.9259 95.506C77.025 94.6001 80.1417 94.2891 82.6205 94.6626C89.8668 95.7407 92.0392 102.37 96.9446 106.692C102.891 111.927 111.639 113.07 119.001 110.41C121.1 109.504 124.216 109.193 126.7 109.568C133.943 110.645 136.113 117.274 141.018 121.596C146.965 126.831 155.712 127.974 163.081 125.316C165.18 124.41 168.289 124.097 170.774 124.472C178.023 125.551 180.193 132.18 185.099 136.502C191.039 141.735 199.793 142.88 207.155 140.22C210.542 138.997 208.029 133.994 204.668 135.203ZM27.6059 95.5953C25.5396 94.8965 23.2899 96.0097 22.5914 98.0754L21.425 101.525C20.7265 103.59 21.8388 105.84 23.9051 106.539L193.182 163.781C195.248 164.48 197.498 163.367 198.197 161.301L199.363 157.852C200.062 155.786 198.949 153.536 196.883 152.837L27.6059 95.5953ZM191.391 169.078L22.1141 111.836C17.128 110.15 14.4404 104.726 16.1284 99.7337L17.2949 96.2843C18.9807 91.299 24.4108 88.6127 29.3969 90.2987L198.674 147.541C203.659 149.227 206.346 154.658 204.66 159.643L203.493 163.092C201.805 168.084 196.377 170.764 191.391 169.078ZM30.818 126.502C28.1724 125.608 25.2931 127.032 24.3998 129.673L23.2782 132.99C20.5334 141.107 24.9038 149.948 33.0247 152.694L157.917 194.927C166.041 197.674 174.876 193.299 177.62 185.182L178.742 181.865C179.635 179.224 178.211 176.344 175.57 175.451L30.818 126.502ZM156.129 200.225L31.2363 157.992C20.1957 154.258 14.2522 142.237 17.9843 131.2L19.1059 127.883C20.9865 122.322 27.0458 119.324 32.6117 121.207L177.366 170.156C182.927 172.037 185.925 178.097 184.044 183.658L182.922 186.975C179.19 198.012 167.174 203.96 156.131 200.226" fill="#F0F0F0"/>
</svg>
