<svg width="119" height="125" viewBox="0 0 119 125" fill="none" xmlns="http://www.w3.org/2000/svg">
<g clip-path="url(#clip0_115_117)">
<path d="M134.297 79.8683C127.14 73.5215 119.983 67.1754 112.826 60.8287L162.043 72.5437C154.792 74.4574 147.54 76.3704 140.288 78.2866C139.822 78.2723 139.407 78.3898 139.058 78.6111C137.473 79.0303 135.889 79.4487 134.297 79.8683ZM110.936 67.2313C106.184 66.5967 101.661 67.0549 96.9133 67.1554C91.4029 67.2679 85.9152 66.24 80.7174 64.4005C82.7891 63.8501 84.8669 63.3032 86.9382 62.7547C92.0671 61.4015 97.1953 60.0516 102.318 58.6969C105.591 61.6017 108.87 64.5087 112.149 67.4151C111.743 67.351 111.337 67.2861 110.936 67.2313ZM64.2251 63.1891C60.8326 60.1805 57.4416 57.1743 54.0491 54.1657C53.8381 53.7723 53.4908 53.45 53.0115 53.244C49.592 50.2124 46.1725 47.1808 42.7523 44.149L74.0597 51.6011L91.9694 55.8641C82.7206 58.3059 73.4746 60.7475 64.2251 63.1891ZM45.0996 12.744C59.4795 12.2307 71.7466 22.308 74.9841 36.1117C75.7762 39.4835 80.9241 37.9117 80.1367 34.5459C79.2221 30.6616 77.6668 27.0405 75.6058 23.7853C92.2252 17.9693 110.234 28.194 114.286 45.4668C115.079 48.8387 120.226 47.2666 119.438 43.9009C118.504 39.9338 116.951 36.3326 114.922 33.1354C131.539 27.3325 149.542 37.5556 153.595 54.8234C154.381 58.1937 159.534 56.6232 158.74 53.2558C157.679 48.7192 155.794 44.6556 153.317 41.133C163.344 38.5856 174.074 41.0911 181.629 48.5226C188.356 55.1366 191.311 64.486 190.081 73.6842L133.047 60.1084L37.3451 37.3285L18.2609 32.7859C22.2527 21.3749 32.7632 13.1828 45.0996 12.744ZM191.438 88.6861C185.77 85.6297 179.375 83.4541 173.079 82.1931C167.924 81.1602 162.948 81.2604 157.733 81.3242C155.634 81.3508 153.544 81.1932 151.473 80.8998C153.322 80.4125 155.172 79.9246 157.022 79.4366C162.388 78.0162 167.76 76.5994 173.132 75.1831L191.622 79.5845C193.021 79.9174 194.549 79.013 194.86 77.5897C197.516 65.7041 194.071 53.2212 185.349 44.6302C175.956 35.3747 161.908 32.4487 149.536 36.6344C139.958 27.0544 125.134 23.4962 111.585 28.7151C102.101 18.0705 86.5003 13.8901 72.2962 19.3551C65.5581 11.6784 55.6261 6.99168 44.9135 7.36332C29.2745 7.90606 16.0531 19.09 12.2482 34.1231C11.8909 35.5325 12.8403 37.0293 14.242 37.363L31.6752 41.5126C35.8337 45.2001 39.9926 48.8884 44.1517 52.576C37.6633 52.6014 31.2251 53.1816 24.7383 51.4649C20.2107 50.2657 15.6399 48.4787 11.6962 45.9025C8.79253 44.0027 6.22004 48.7353 9.10342 50.6192C13.1353 53.2544 17.8587 55.0935 22.462 56.4158C26.6159 57.6097 30.9499 58.2849 35.276 58.3464C40.4395 58.4151 45.3558 57.5839 50.5139 58.2177C53.1607 60.564 55.8051 62.909 58.4493 65.2546C59.4942 66.1802 60.5143 67.3001 61.6613 68.1015C63.359 69.2908 64.9656 68.5592 66.7705 68.082C68.5961 67.5994 70.4205 67.1192 72.2435 66.636C78.8298 69.8785 85.976 71.947 93.3099 72.4433C98.5093 72.7962 103.648 71.8099 108.845 72.375C113.06 72.8306 117.17 73.9304 121.145 75.392C123.603 77.571 126.061 79.7508 128.525 81.9347C129.569 82.8599 130.587 83.9794 131.736 84.7812C133.435 85.9709 135.039 85.2387 136.844 84.7616C138.03 84.4507 139.21 84.1375 140.39 83.8223C144.961 85.2501 149.625 86.2553 154.413 86.594C159.915 86.9836 165.273 86.2353 170.763 87.2238C176.987 88.3489 183.262 90.393 188.844 93.4027C191.899 95.0497 194.493 90.3306 191.438 88.6863L191.438 88.6861ZM164.94 114.618C162.262 114.001 159.593 113.345 156.927 112.711L120.154 103.958L33.6814 83.3747C30.063 82.5134 26.4448 81.666 22.8327 80.7924C15.4619 79.0034 10.2953 73.0634 10.5846 65.6505L67.4946 79.1968L163.19 101.975L182.132 106.484C179.147 112.958 172.13 116.267 164.939 114.618L164.94 114.618ZM186.301 101.943L126.482 87.704L30.78 64.9242L8.92054 59.721C8.24359 59.5598 7.65833 59.6498 7.17147 59.8931C6.4685 60.1602 5.8856 60.739 5.68027 61.715C3.40581 72.5285 9.81216 82.9697 20.5163 85.7731C22.6218 86.3226 24.757 86.7825 26.874 87.2864L64.2933 96.1933L154.662 117.704C157.786 118.447 160.896 119.25 164.028 119.933C174.91 122.295 185.425 115.986 188.293 105.182C188.669 103.777 187.687 102.273 186.302 101.943" fill="#F0F0F0"/>
</g>
<defs>
<clipPath id="clip0_115_117">
<rect width="189.939" height="83.178" fill="white" transform="translate(19.2607) rotate(13.3889)"/>
</clipPath>
</defs>
</svg>
