<svg width="249" height="228" viewBox="0 0 249 228" fill="none" xmlns="http://www.w3.org/2000/svg">
<g clip-path="url(#clip0_165_9)">
<path d="M194.74 188.231C219.66 152.742 211.063 103.597 175.571 78.6756C147.408 58.9035 108.86 59.9218 81.8212 81.1504C78.812 83.5134 75.9732 86.1286 73.3333 88.9164L70.095 92.9193L69.9133 92.7641C68.5495 94.4091 67.2441 96.1044 66.0201 97.8476L53.0836 116.271C49.5673 121.279 44.2953 124.337 38.6768 125.201L154.608 206.605C164.667 213.668 178.59 211.231 185.653 201.173L194.74 188.231ZM19.8189 109.072L26.0139 97.5947C24.8323 96.8937 24.6229 96.7467 24.4904 96.6537L22.0266 94.9236L31.1223 81.9699L29.7148 80.9816L41.3248 64.4472L46.9332 68.3852L56.8045 56.1802L67.8787 65.1342L58.9655 55.4812L73.2368 42.3091C56.425 47.0509 41.0791 57.3735 30.2805 72.7523L21.1934 85.6938C16.1892 92.8205 15.9627 101.876 19.8189 109.072V109.072ZM127.558 58.4168C127.917 58.4032 128.28 58.4099 128.644 58.403C127.223 56.5894 125.758 55.4529 124.223 54.9894C121.732 54.2393 118.615 55.0862 113.797 57.8287C107.21 61.5768 104.027 60.1758 99.9161 57.6085C98.3077 56.6051 96.4852 55.4652 93.7762 54.5296C90.0945 53.2595 87.1084 53.4297 85.0252 53.9249L95.9247 65.7342C105.86 61.3257 116.648 58.7882 127.558 58.4168V58.4168ZM90.2781 68.4949L73.473 50.2856L67.4767 55.8181L83.1281 72.7785C85.4386 71.2326 87.8272 69.806 90.2781 68.4949ZM69.2475 84.4786C71.1419 82.4971 73.1284 80.594 75.2074 78.8055L57.7029 64.6466L52.5698 70.9903L65.2478 81.2424L65.9863 81.761L65.9508 81.8115L69.2475 84.4786ZM65.2352 88.9799L61.6083 86.047L42.7924 72.835L38.104 79.5121L51.9491 89.2337C54.8619 90.9019 57.9589 92.672 61.0622 94.4371L61.0968 94.3878C62.3986 92.5338 63.7911 90.7249 65.2352 88.9799V88.9799ZM57.5848 99.3895C52.1657 96.2925 40.5759 89.6719 35.2469 86.5738L30.5411 93.2755C33.5777 95.0491 39.924 98.7051 52.8747 106.097L57.5848 99.3895ZM25.4269 115.831C25.7798 116.106 26.1352 116.383 26.5036 116.651C27.8741 117.595 29.3387 118.292 30.8469 118.753L25.4269 115.831ZM48.5841 112.208L30.2961 102.337L26.4202 109.52L42.0313 117.944C44.4105 116.828 46.547 115.109 48.1603 112.811L48.5841 112.208ZM74.0853 42.0725L80.5746 49.1003C83.4853 47.8352 88.8371 46.4558 95.7415 48.8401C99.0951 49.9984 101.318 51.3865 103.107 52.5026C106.142 54.3964 106.862 54.8489 110.818 52.597C115.326 50.0291 120.652 47.6217 125.962 49.227C129.787 50.379 133.056 53.4428 135.912 58.556C140.008 58.8136 144.062 59.3534 148.04 60.1964C145.46 57.8204 142.725 55.6124 139.836 53.5839C119.982 39.6431 95.855 36.1952 74.0853 42.0725L74.0853 42.0725ZM199.671 191.69L190.584 204.632C181.613 217.407 163.925 220.502 151.15 211.531L22.98 121.534L22.9856 121.529C10.3652 112.52 7.33805 94.9441 16.2651 82.2305L25.3522 69.2891C52.1789 31.0838 105.088 21.8241 143.296 48.6525C149.349 52.9065 154.796 57.9059 159.509 63.5183C166.357 66.0382 172.91 69.4501 179.032 73.7493C217.241 100.578 226.497 153.485 199.669 191.693L199.671 191.69ZM173.548 146.051C176.72 148.279 180.192 143.348 177.014 141.116C173.841 138.889 170.37 143.82 173.548 146.051ZM151.062 125.437C154.24 127.668 157.71 122.741 154.525 120.505C151.353 118.277 147.884 123.205 151.062 125.437ZM119.384 128.482C122.556 130.71 126.028 125.778 122.85 123.546C119.677 121.319 116.205 126.25 119.384 128.482ZM98.8006 157.796C101.973 160.024 105.443 155.094 102.265 152.862C99.0928 150.635 95.6222 155.564 98.8006 157.796ZM87.6833 99.9674C90.8574 102.196 94.3252 97.2665 91.1468 95.0348C87.9709 92.8047 84.5024 97.7339 87.6833 99.9674ZM84.3187 132.278C87.4971 134.51 90.9677 129.58 87.7832 127.344C84.6109 125.117 81.1403 130.046 84.3187 132.278ZM183.722 173.658C186.894 175.886 190.366 170.954 187.187 168.723C184.009 166.491 180.543 171.426 183.722 173.658ZM170.357 192.692C173.529 194.919 177 189.989 173.821 187.758C170.643 185.526 167.178 190.46 170.357 192.692ZM149.366 158.631C152.545 160.862 156.015 155.933 152.831 153.697C149.659 151.469 146.188 156.399 149.366 158.631ZM123.531 159.812C120.353 157.58 123.817 152.646 126.996 154.878C130.174 157.11 126.703 162.039 123.531 159.812Z" fill="#F0F0F0"/>
</g>
<defs>
<clipPath id="clip0_165_9">
<rect width="213" height="128.778" fill="white" transform="translate(74.0031) rotate(35.0754)"/>
</clipPath>
</defs>
</svg>
