<svg width="297" height="156" viewBox="0 0 297 156" fill="none" xmlns="http://www.w3.org/2000/svg">
<path d="M286.707 49.8664L286.723 49.9066L286.739 49.9465C290.926 60.0469 292.789 70.9594 292.189 81.8768C291.59 92.7942 288.544 103.437 283.277 113.019C278.009 122.6 270.655 130.875 261.759 137.231C252.864 143.585 242.655 147.859 231.887 149.737C214.764 152.647 197.993 149.4 183.943 141.669C168.074 132.903 150.307 128.868 132.396 132.002C124.569 133.368 116.521 131.571 110.019 127.006C103.517 122.44 99.0938 115.48 97.7216 107.655C97.7215 107.654 97.7214 107.654 97.7213 107.653L94.7384 90.6052L94.7366 90.5948L94.7347 90.5845C91.8491 74.5282 102.614 58.9018 120.22 55.8213L120.22 55.8213L120.737 55.7309C120.737 55.7309 120.737 55.7309 120.737 55.7309C137.808 52.7438 152.499 43.1903 163.748 30.1131L163.755 30.1044L163.763 30.0957C177.534 13.9208 198.515 3.63786 222.895 4.6482L222.905 4.64861C250.948 5.74572 276.486 23.8299 286.707 49.8664ZM25.6274 138.259L25.5863 138.266L25.5453 138.273C22.8931 138.758 20.1572 138.458 17.6731 137.41C15.189 136.362 13.0648 134.612 11.561 132.374C10.0572 130.137 9.23919 127.509 9.20736 124.813C9.17553 122.117 9.93124 119.47 11.3818 117.198L13.633 113.671L10.318 111.118C8.18195 109.473 6.57252 107.24 5.68708 104.693C4.80165 102.147 4.67871 99.3972 5.33337 96.7819C5.98802 94.1665 7.39179 91.7991 9.37249 89.97C11.3532 88.1408 13.8247 86.9296 16.4838 86.4849L16.5007 86.482L16.5175 86.4791C22.4934 85.4335 28.2684 88.3766 30.9838 93.3204L32.5406 96.1548L35.7315 95.6299L72.9637 89.5055C73.0649 91.086 73.2282 92.7264 73.507 94.3201L76.4902 111.369L76.4998 111.424L76.5107 111.479C76.8824 113.336 77.2963 115.156 77.8441 116.996L40.6356 123.12L41.3778 127.63L36.8679 126.889C35.9208 132.65 31.6045 137.279 25.6274 138.259Z" stroke="#F0F0F0" stroke-width="9.14083"/>
</svg>
