<svg width="81" height="144" viewBox="0 0 81 144" fill="none" xmlns="http://www.w3.org/2000/svg">
<path d="M40.325 49.7872C42.646 50.572 43.864 46.97 41.543 46.1852C39.2266 45.4018 38.004 49.0023 40.325 49.7872ZM-17.8978 29.4782C-15.5787 30.2625 -14.3564 26.6599 -16.6792 25.8744C-18.9966 25.0908 -20.2188 28.6934 -17.8978 29.4782ZM-31.6106 40.1013C-29.2932 40.8849 -28.0709 37.2824 -30.3919 36.4975C-32.7115 35.7131 -33.9333 39.3159 -31.6106 40.1013ZM-2.86338 41.6597C-0.546908 42.4431 0.680126 38.8441 -1.64534 38.0577C-3.96182 37.2744 -5.18436 40.8749 -2.86338 41.6597ZM8.32198 28.8447C10.643 29.6296 11.8616 26.0258 9.54063 25.2409C7.22415 24.4576 6.00101 28.0599 8.32198 28.8447ZM31.5947 62.254C33.9156 63.0388 35.1388 59.4365 32.8133 58.6502C30.4968 57.8668 29.2737 61.4691 31.5947 62.254ZM26.4257 39.3269C28.7422 40.1102 29.9654 36.5079 27.6444 35.723C25.3234 34.9382 24.1003 38.5405 26.4257 39.3269ZM15.3003 25.121C-13.6098 15.3449 -42.0279 21.8804 -48.0503 39.6898L-48.5746 41.2373C-49.1824 43.0347 -48.2148 44.9909 -46.4174 45.5987L51.927 78.8545C53.7218 79.4613 55.6779 78.4938 56.2857 76.6964L56.8091 75.1487C62.8315 57.3392 44.2108 34.8972 15.3021 25.1216L15.3003 25.121ZM50.7084 82.4523L-47.6361 49.1965C-51.4157 47.9183 -53.4515 43.8015 -52.173 40.0205L-51.6496 38.4727C-48.3532 28.7246 -39.3338 21.6286 -26.2564 18.4946C-13.4921 15.4358 1.69616 16.5108 16.5171 21.5226C31.338 26.5344 44.0631 34.8982 52.3503 45.076C60.8436 55.5042 63.7021 66.6168 60.4057 76.3649L59.8824 77.9126C58.6038 81.6937 54.4868 83.7299 50.7084 82.4523ZM58.0495 91.8557C58.3503 91.7519 58.245 91.7965 57.9203 91.8822C57.4588 92.0018 56.9958 92.1109 56.5255 92.1975C55.1295 92.4422 53.6818 92.484 52.2774 92.2497C50.1888 91.9043 48.2741 90.926 46.767 89.4389C45.0595 87.7588 44.0269 85.5801 42.2215 83.9672C38.4672 80.6025 32.8448 79.7237 28.1935 81.6946C28.1424 81.7124 28.0702 81.7331 27.977 81.7567C27.5155 81.8763 27.0526 81.9855 26.5822 82.072C25.1862 82.3167 23.7341 82.357 22.3342 82.1242C20.2455 81.7788 18.3308 80.8005 16.8237 79.3134C15.1162 77.6333 14.0791 75.4531 12.2782 73.8417C8.52398 70.477 2.90153 69.5982 -1.74975 71.5691C-1.80088 71.5869 -1.87304 71.6076 -1.96624 71.6312C-2.42773 71.7509 -2.89517 71.8584 -3.36553 71.945C-4.76152 72.1897 -6.20917 72.2315 -7.60909 71.9987C-9.69773 71.6533 -11.6169 70.6735 -13.124 69.1864C-14.8315 67.5063 -15.8641 65.3276 -17.665 63.7162C-21.422 60.3506 -27.0458 59.4714 -31.693 61.4436C-31.7459 61.4608 -31.8176 61.4817 -31.9117 61.505C-32.3746 61.6241 -32.8366 61.7336 -33.3101 61.819C-34.7048 62.0642 -36.1556 62.1049 -37.555 61.8723C-39.6432 61.527 -41.5615 60.5475 -43.0677 59.0608C-44.773 57.3814 -45.8078 55.202 -47.6105 53.5899C-51.3923 50.2059 -57.064 49.3305 -61.7284 51.3521C-63.9796 52.3301 -62.2828 55.7309 -60.0412 54.7596C-58.6155 54.144 -56.4981 53.9328 -54.8122 54.1871C-49.8905 54.9191 -48.416 59.4226 -45.0837 62.3589C-41.0431 65.9157 -35.099 66.6926 -30.0962 64.8857C-28.67 64.2703 -26.5526 64.059 -24.8685 64.3127C-19.9454 65.0452 -18.4696 69.5491 -15.1369 72.4856C-11.0967 76.0422 -5.15396 76.8187 -0.15202 75.0115C1.2741 74.3961 3.39067 74.1845 5.0788 74.4396C9.99916 75.1712 11.4737 79.6746 14.8064 82.6111C18.8466 86.1677 24.7893 86.9442 29.7957 85.1385C31.2219 84.5231 33.3339 84.31 35.022 84.5651C39.9469 85.2982 41.4214 89.8017 44.7541 92.7381C48.7898 96.2932 54.737 97.0712 59.739 95.264C62.0399 94.4332 60.3324 91.0338 58.0495 91.8557ZM-62.2449 64.9464C-63.6487 64.4717 -65.1771 65.228 -65.6517 66.6314L-66.4441 68.9748C-66.9187 70.3782 -66.163 71.9069 -64.7591 72.3816L50.246 111.271C51.6493 111.746 53.1782 110.99 53.6528 109.586L54.4452 107.243C54.9198 105.839 54.1636 104.311 52.7602 103.836L-62.2449 64.9464ZM49.0292 114.87L-65.976 75.98C-69.3635 74.8345 -71.1894 71.1495 -70.0425 67.758L-69.2501 65.4146C-68.1047 62.0276 -64.4155 60.2025 -61.0281 61.348L53.9771 100.238C57.3641 101.383 59.189 105.073 58.0436 108.46L57.2512 110.803C56.1043 114.195 52.4162 116.015 49.0292 114.87ZM-60.0626 85.9443C-61.86 85.3365 -63.8162 86.304 -64.423 88.0987L-65.1851 90.3522C-67.0499 95.8668 -64.0806 101.873 -58.5634 103.739L26.2871 132.432C31.8061 134.298 37.8086 131.325 39.6734 125.811L40.4355 123.557C41.0423 121.763 40.0748 119.806 38.2801 119.199L-60.0626 85.9443ZM25.0721 136.031L-59.7784 107.338C-67.2793 104.801 -71.3172 96.6342 -68.7817 89.136L-68.0197 86.8825C-66.742 83.1042 -62.6254 81.0678 -58.8439 82.3465L39.5005 115.602C43.2789 116.88 45.3151 120.997 44.0375 124.775L43.2754 127.029C40.7399 134.527 32.5765 138.568 25.0739 136.031" fill="#F0F0F0"/>
</svg>
