<svg width="185" height="184" viewBox="0 0 185 184" fill="none" xmlns="http://www.w3.org/2000/svg">
<path d="M87.3336 95.3697C87.8216 93.2387 88.9245 91.2979 90.5056 89.7882C90.9919 89.3057 91.5598 88.9133 92.1831 88.6292L92.2441 88.6139C94.2181 88.9511 96.2455 88.4981 97.8883 87.3528C99.5312 86.2076 100.657 84.462 101.024 82.4933C101.391 80.5245 100.968 78.4906 99.8472 76.8309C98.7265 75.1712 96.998 74.019 95.0349 73.6232C88.9044 72.3269 83.4449 75.4989 80.0899 78.6557C76.4756 82.0259 73.5324 86.8602 72.4039 92.2282C72.1976 93.2085 72.1864 94.2198 72.371 95.2044C72.5556 96.189 72.9323 97.1276 73.4796 97.9667C74.0269 98.8057 74.7341 99.5287 75.5609 100.094C76.3876 100.66 77.3177 101.058 78.298 101.264C79.2783 101.47 80.2896 101.481 81.2742 101.297C82.2588 101.112 83.1975 100.735 84.0365 100.188C84.8755 99.6407 85.5986 98.9335 86.1643 98.1068C86.73 97.28 87.1273 96.35 87.3336 95.3697V95.3697ZM96.5751 146.915C103.184 146.915 109.728 145.613 115.834 143.084C121.939 140.555 127.487 136.848 132.16 132.175C136.833 127.502 140.54 121.954 143.069 115.848C145.598 109.742 146.9 103.198 146.9 96.5897C146.9 89.9809 145.598 83.4368 143.069 77.3311C140.54 71.2254 136.833 65.6776 132.16 61.0045C127.487 56.3314 121.939 52.6245 115.834 50.0954C109.728 47.5664 103.184 46.2647 96.5751 46.2647C83.2281 46.2647 70.4277 51.5667 60.99 61.0045C51.5522 70.4423 46.2501 83.2426 46.2501 96.5897C46.2501 109.937 51.5522 122.737 60.99 132.175C70.4277 141.613 83.2281 146.915 96.5751 146.915V146.915ZM96.5751 131.665C87.2726 131.665 78.3512 127.969 71.7733 121.391C65.1955 114.814 61.5001 105.892 61.5001 96.5897C61.5001 87.2872 65.1955 78.3657 71.7733 71.7879C78.3512 65.2101 87.2726 61.5147 96.5751 61.5147C105.878 61.5147 114.799 65.2101 121.377 71.7879C127.955 78.3657 131.65 87.2872 131.65 96.5897C131.65 105.892 127.955 114.814 121.377 121.391C114.799 127.969 105.878 131.665 96.5751 131.665V131.665ZM110.346 0.575661C122.332 1.35341 133.648 4.92191 141.822 10.0764C160.152 21.6512 166.878 32.2652 172.734 42.4674C178.59 52.7002 184.72 65.7389 184.72 85.9147C184.72 95.3697 183.668 100.097 182.799 104.062L182.646 104.748C181.914 108.027 181.319 111.016 181.945 118.687C182.634 129.035 180.802 139.397 176.607 148.882C172.474 158.383 165.917 167.273 157.041 172.824C139.001 184.109 117.224 186.549 96.8038 178.391C87.7301 174.761 84.9394 174.044 81.8894 173.846C79.5461 173.759 77.2 173.785 74.8591 173.922H74.7676C71.5346 174.044 67.3256 174.212 61.5001 174.212C35.1176 174.212 17.5801 158.398 8.67411 141.272C-4.30364 116.308 -4.07489 78.2897 24.7476 55.5214C33.2571 48.8114 35.5294 46.7679 38.1829 42.3454C42.9561 34.4002 47.5311 28.0867 53.1126 22.6119C58.7094 17.1219 65.0534 12.7299 73.0901 8.32266C85.0004 1.76516 98.2984 -0.217339 110.346 0.575661V0.575661ZM109.339 15.7952C99.5794 15.1547 89.3009 16.8017 80.4254 21.6817C73.1969 25.6467 68.1034 29.2762 63.8029 33.5004C59.4566 37.7399 55.6441 42.8792 51.2674 50.1839C46.9974 57.2904 42.6206 60.8589 34.1874 67.4927C12.6696 84.4964 11.6021 113.837 22.2161 134.242C29.1701 147.631 42.1479 158.947 61.5001 158.947C67.0359 158.947 71.0161 158.81 74.2186 158.688H74.4931C77.5279 158.566 80.2271 158.459 82.8349 158.627C88.5994 158.993 93.4336 160.624 102.462 164.239C118.184 170.522 134.868 168.692 148.974 159.892C154.556 156.385 159.359 150.285 162.638 142.782C165.886 135.309 167.335 127.074 166.756 119.937C165.978 110.574 166.756 106.045 167.747 101.485L167.915 100.722C168.677 97.2759 169.47 93.7227 169.47 85.9147C169.47 69.3532 164.621 58.9679 159.497 50.0619C154.373 41.1102 149.172 32.7532 133.678 22.9779C127.96 19.3637 119.191 16.4357 109.339 15.7952V15.7952Z" fill="#F0F0F0"/>
</svg>
