<svg width="158" height="180" viewBox="0 0 158 180" fill="none" xmlns="http://www.w3.org/2000/svg">
<path d="M94.3245 168.815L30.467 154.247L24.6267 70.5305L135.894 95.9134L94.3245 168.815ZM28.2175 60.5761C29.3103 55.7857 31.5971 51.3473 34.8059 47.6593L32.7027 67.858L26.8604 66.5252L28.2175 60.5761ZM48.5217 32.9558L45.3259 63.6437L43.7877 70.3867L37.0253 68.8441L40.8474 32.1554L48.5217 32.9558ZM66.4003 25.745L64.2788 35.0447L62.9327 34.7906L55.6874 73.1014L48.0791 71.3657L58.8778 24.0289L66.4003 25.745ZM67.612 16.0769L75.1345 17.793L74.4968 20.5884L74.1282 20.5043L70.5411 36.2289L68.6071 35.8622L71.6708 22.4325L66.4346 21.238L67.612 16.0769ZM84.9616 27.4905L81.5183 42.5842L78.4059 41.8742L79.1656 37.8588L75.2409 37.1176L77.8093 25.8589L84.9616 27.4905ZM102.952 21.1851L93.2278 51.2714L88.3681 49.9382L89.6239 44.4333L87.4835 43.945L95.6104 18.8093L102.952 21.1851ZM116.782 24.34L109.95 45.455L102.608 43.0807L109.44 21.9641L116.782 24.34ZM129.199 31.1119L121.087 52.8434L115.915 51.1714L117.024 47.7432L114.996 47.0863L121.97 28.4136L129.199 31.1119ZM114.564 55.3606L120.914 57.4129L111.71 85.8816L105.176 84.3911L114.564 55.3606ZM104.132 48.199L111.485 50.5778L100.863 83.4072L93.1924 81.6572L104.132 48.199ZM83.9461 69.1243L83.989 69.1341L84.2154 68.1417L87.9833 54.3958L95.4295 56.4387L88.7829 80.6513L81.2567 78.9344L83.9461 69.1243ZM76.8299 46.0295L84.3534 47.7458L79.9447 67.0715L76.9598 77.9542L69.9137 76.3468L76.8299 46.0295ZM59.9832 74.0814L66.4396 39.9334L73.4055 41.2493L65.6222 75.3678L59.9832 74.0814ZM135.954 39.6791L120.37 87.8571L116.019 86.8647L126.46 54.5804L125.277 54.1983L131.266 38.1622L135.954 39.6791ZM145.47 56.1544L132.59 90.6448L124.801 88.8679L138.23 53.4516L145.47 56.1544ZM139.376 92.1928L140.733 86.2438C141.264 83.9156 141.542 81.5353 141.581 79.16L151.132 53.5709L137.71 48.5601L141.494 36.8445L132.806 34.0336L134.864 28.5287L121.649 23.5941L122.323 21.5037L106.603 16.4207L106.218 17.6137L92.7792 13.2671L89.3217 23.9703L78.7899 21.5677L80.4066 14.4809L64.3011 10.8069L62.1447 20.2595L55.5669 18.7589L53.226 29.0204L36.9273 27.3215L35.5189 40.8404C29.7059 45.6427 25.6007 52.2634 23.9276 59.5976L22.5706 65.5467L19.8255 64.9205L26.3053 157.813L96.5303 173.833L142.659 92.9419L139.376 92.193" fill="#F0F0F0"/>
</svg>
