<svg width="60" height="78" viewBox="0 0 60 78" fill="none" xmlns="http://www.w3.org/2000/svg">
<g clip-path="url(#clip0_115_128)">
<path d="M41.197 63.9845C49.6677 51.9209 46.7456 35.2153 34.681 26.7439C25.1075 20.0228 12.004 20.369 2.81303 27.5851C1.7901 28.3883 0.825148 29.2773 -0.0722323 30.225L-1.17302 31.5856L-1.23477 31.5329C-1.69838 32.0921 -2.14209 32.6683 -2.55816 33.2609L-6.95559 39.5235C-8.15088 41.2258 -9.94297 42.2652 -11.8528 42.5591L27.555 70.2301C30.9742 72.631 35.7072 71.8028 38.1081 68.3836L41.197 63.9845ZM-18.2631 37.0764L-16.1573 33.1749C-16.5589 32.9366 -16.6301 32.8866 -16.6751 32.855L-17.5126 32.267L-14.4208 27.8636L-14.8992 27.5277L-10.9527 21.9073L-9.04628 23.2459L-5.69077 19.0971L-1.9264 22.1408L-4.95621 18.8595L-0.105033 14.382C-5.81979 15.9938 -11.0362 19.5027 -14.7069 24.7304L-17.7959 29.1295C-19.4969 31.552 -19.5739 34.6304 -18.2631 37.0764ZM18.3602 19.8574C18.4822 19.8528 18.6057 19.855 18.7292 19.8527C18.2461 19.2362 17.7481 18.8499 17.2263 18.6923C16.3796 18.4373 15.32 18.7252 13.6825 19.6575C11.4433 20.9316 10.3613 20.4553 8.96391 19.5826C8.41717 19.2415 7.79767 18.8541 6.87681 18.536C5.62531 18.1043 4.61026 18.1622 3.90215 18.3305L7.60714 22.3447C10.9843 20.8462 14.6514 19.9836 18.3602 19.8574ZM5.68774 23.2832L-0.0247416 17.0934L-2.06303 18.974L3.25726 24.7393C4.04265 24.2138 4.85459 23.7289 5.68774 23.2832ZM-1.46108 28.7164C-0.817126 28.0429 -0.141872 27.396 0.564807 26.788L-5.38539 21.975L-7.13025 24.1314L-2.8207 27.6164L-2.56966 27.7927L-2.58171 27.8098L-1.46108 28.7164ZM-2.82497 30.2465L-4.05783 29.2496L-10.4538 24.7585L-12.0475 27.0282L-7.34126 30.3328C-6.35112 30.8999 -5.29835 31.5016 -4.24349 32.1016L-4.23173 32.0848C-3.78919 31.4546 -3.31587 30.8397 -2.82497 30.2465ZM-5.42555 33.785C-7.26762 32.7323 -11.2073 30.4818 -13.0187 29.4286L-14.6183 31.7067C-13.5861 32.3096 -11.4289 33.5524 -7.02662 36.0652L-5.42555 33.785ZM-16.3568 39.3737C-16.2368 39.4673 -16.116 39.5615 -15.9908 39.6526C-15.5249 39.9735 -15.0271 40.2105 -14.5144 40.3673L-16.3568 39.3737ZM-8.48508 38.1422L-14.7016 34.7869L-16.0191 37.2287L-10.7126 40.092C-9.90381 39.7126 -9.17755 39.1284 -8.62916 38.3474L-8.48508 38.1422ZM0.183384 14.3016L2.38928 16.6905C3.37869 16.2604 5.19787 15.7915 7.54486 16.602C8.68485 16.9958 9.44051 17.4676 10.0485 17.847C11.0802 18.4907 11.3251 18.6446 12.6698 17.8791C14.2021 17.0062 16.0125 16.1879 17.8176 16.7335C19.1179 17.1251 20.2289 18.1666 21.1999 19.9047C22.5921 19.9923 23.97 20.1758 25.3225 20.4623C24.4454 19.6547 23.5156 18.9041 22.5336 18.2146C15.7848 13.4758 7.58345 12.3037 0.183399 14.3016L0.183384 14.3016ZM42.8729 65.1603L39.784 69.5594C36.7348 73.902 30.7222 74.9541 26.3797 71.9048L-17.1886 41.3125L-17.1867 41.3107C-21.4766 38.2484 -22.5056 32.2739 -19.4711 27.9523L-16.3822 23.5531C-7.26313 10.5662 10.722 7.41863 23.7097 16.5383C25.7674 17.9843 27.6189 19.6837 29.2211 21.5915C31.5488 22.4481 33.7762 23.6079 35.8575 25.0693C48.8454 34.189 51.992 52.1734 42.8724 65.1612L42.8729 65.1603ZM33.9933 49.6465C35.0716 50.4037 36.2516 48.7276 35.1712 47.969C34.0929 47.2118 32.9129 48.8879 33.9933 49.6465ZM26.3496 42.6391C27.4301 43.3977 28.6094 41.7227 27.5268 40.9626C26.4485 40.2054 25.2692 41.8805 26.3496 42.6391ZM15.5815 43.6743C16.6598 44.4315 17.84 42.7552 16.7596 41.9966C15.6813 41.2394 14.5011 42.9157 15.5815 43.6743ZM8.58471 53.6388C9.66303 54.396 10.8428 52.7203 9.76236 51.9617C8.68404 51.2045 7.5043 52.8802 8.58471 53.6388ZM4.80568 33.9815C5.88462 34.7391 7.06344 33.0634 5.98303 32.3047C4.90345 31.5467 3.72443 33.2222 4.80568 33.9815ZM3.66198 44.9647C4.74239 45.7233 5.92213 44.0476 4.83963 43.2875C3.76131 42.5303 2.58157 44.206 3.66198 44.9647ZM37.4514 59.0308C38.5297 59.7879 39.7099 58.1116 38.6295 57.353C37.5491 56.5944 36.371 58.2721 37.4514 59.0308ZM32.9085 65.5007C33.9868 66.2578 35.1665 64.5822 34.0861 63.8235C33.0057 63.0649 31.828 64.742 32.9085 65.5007ZM25.7733 53.9225C26.8537 54.6811 28.0334 53.0054 26.9509 52.2453C25.8726 51.4882 24.6929 53.1639 25.7733 53.9225ZM16.9912 54.3241C15.9108 53.5654 17.0885 51.8883 18.1689 52.6469C19.2493 53.4056 18.0696 55.0812 16.9912 54.3241Z" fill="#F0F0F0"/>
</g>
<defs>
<clipPath id="clip0_115_128">
<rect width="72.4039" height="43.7749" fill="white" transform="translate(0.155441) rotate(35.0754)"/>
</clipPath>
</defs>
</svg>
