<svg width="303" height="186" viewBox="0 0 303 186" fill="none" xmlns="http://www.w3.org/2000/svg">
<path d="M199.021 118.359C188.415 108.953 177.808 99.5485 167.202 90.1428L240.14 107.504C229.394 110.34 218.647 113.175 207.9 116.015C207.209 115.994 206.595 116.168 206.076 116.496C203.728 117.117 201.38 117.737 199.021 118.359ZM164.401 99.6314C157.358 98.6909 150.656 99.3699 143.619 99.5189C135.453 99.6856 127.32 98.1623 119.617 95.4362C122.687 94.6205 125.767 93.8099 128.836 92.9971C136.437 90.9917 144.037 88.9912 151.629 86.9835C156.479 91.2884 161.339 95.5966 166.199 99.9038C165.597 99.8087 164.995 99.7126 164.401 99.6314ZM95.176 93.6409C90.1483 89.1822 85.1229 84.7272 80.0953 80.2685C79.7827 79.6854 79.268 79.2077 78.5576 78.9025C73.49 74.4097 68.4224 69.917 63.3538 65.424L109.751 76.4678L136.292 82.7855C122.586 86.404 108.883 90.0226 95.176 93.6409V93.6409ZM66.8324 18.8824C88.143 18.1217 106.323 33.056 111.121 53.5128C112.294 58.5097 119.923 56.1803 118.757 51.1924C117.401 45.4359 115.096 40.0695 112.042 35.2453C136.671 26.6261 163.361 41.7789 169.366 67.3769C170.541 72.374 178.168 70.0442 177.001 65.0562C175.616 59.1771 173.315 53.8402 170.307 49.1019C194.933 40.5023 221.613 55.6526 227.62 81.243C228.785 86.2378 236.422 83.9103 235.245 78.92C233.673 72.1968 230.879 66.1747 227.209 60.9542C242.068 57.179 257.97 60.8922 269.166 71.9054C279.136 81.7072 283.514 95.5628 281.692 109.194L197.169 89.0753L55.3403 55.3161L27.058 48.5841C32.9737 31.6732 48.5501 19.5326 66.8324 18.8824V18.8824ZM283.703 131.427C275.303 126.897 265.825 123.673 256.495 121.804C248.856 120.274 241.482 120.422 233.752 120.517C230.642 120.556 227.545 120.323 224.475 119.888C227.216 119.166 229.957 118.443 232.699 117.719C240.651 115.614 248.612 113.515 256.573 111.416L283.976 117.938C286.049 118.432 288.313 117.092 288.774 114.982C292.711 97.3681 287.605 78.8687 274.679 66.137C260.759 52.4206 239.939 48.0844 221.605 54.2874C207.411 40.0901 185.442 34.8169 165.362 42.5511C151.308 26.7762 128.187 20.5809 107.137 28.6799C97.1514 17.3032 82.4324 10.3575 66.5565 10.9083C43.3799 11.7126 23.7861 28.287 18.1474 50.5656C17.6177 52.6545 19.0248 54.8727 21.1022 55.3671L46.9377 61.5168C53.1004 66.9815 59.2639 72.4475 65.4276 77.9125C55.8119 77.9502 46.2707 78.81 36.6574 76.2659C29.9475 74.4886 23.1737 71.8405 17.3293 68.0226C13.0261 65.2071 9.21372 72.2207 13.4868 75.0126C19.462 78.9179 26.4619 81.6434 33.284 83.603C39.44 85.3723 45.8629 86.373 52.274 86.4641C59.9262 86.566 67.2121 85.3341 74.8563 86.2734C78.7788 89.7505 82.6977 93.2257 86.6163 96.7019C88.1649 98.0736 89.6767 99.7333 91.3765 100.921C93.8924 102.684 96.2733 101.599 98.9482 100.892C101.654 100.177 104.357 99.4653 107.059 98.7491C116.82 103.554 127.41 106.62 138.279 107.355C145.984 107.878 153.599 106.417 161.302 107.254C167.548 107.929 173.639 109.559 179.531 111.725C183.173 114.955 186.816 118.185 190.467 121.421C192.014 122.793 193.523 124.452 195.225 125.64C197.743 127.403 200.12 126.318 202.796 125.611C204.554 125.15 206.302 124.686 208.051 124.219C214.824 126.335 221.737 127.825 228.833 128.326C236.986 128.904 244.926 127.795 253.063 129.26C262.287 130.927 271.586 133.956 279.859 138.417C284.385 140.858 288.23 133.864 283.703 131.427L283.703 131.427ZM244.433 169.857C240.464 168.944 236.51 167.971 232.558 167.031L178.062 154.059L49.9109 123.556C44.5485 122.279 39.1863 121.023 33.8334 119.729C22.9099 117.077 15.2532 108.274 15.6819 97.2887L100.021 117.364L241.84 151.121L269.911 157.803C265.488 167.397 255.089 172.302 244.432 169.857L244.433 169.857ZM276.089 151.073L187.439 129.971L45.611 96.2122L13.2158 88.5012C12.2126 88.2624 11.3452 88.3958 10.6237 88.7563C9.58192 89.1521 8.71808 90.0099 8.41379 91.4564C5.04309 107.482 14.5372 122.955 30.4005 127.11C33.5208 127.924 36.685 128.606 39.8225 129.353L95.2771 142.552L229.201 174.43C233.831 175.532 238.441 176.722 243.082 177.734C259.208 181.235 274.791 171.884 279.042 155.874C279.599 153.791 278.144 151.562 276.091 151.073" fill="#F0F0F0"/>
</svg>
