<svg width="72" height="106" viewBox="0 0 72 106" fill="none" xmlns="http://www.w3.org/2000/svg">
<g clip-path="url(#clip0_115_132)">
<path d="M81.8973 81.99L49.3647 96.4431L19.5643 61.9133L76.2503 36.7296L81.8973 81.99ZM17.8857 56.4122C16.8015 53.9717 16.3515 51.2956 16.547 48.6459L22.2086 58.1207L19.2322 59.443L17.8857 56.4122ZM17.7282 37.7813L26.3297 52.1765L27.8559 55.6118L24.4108 57.1423L14.1279 39.9318L17.7282 37.7813ZM23.1606 28.8219L25.2655 33.5596L24.5969 33.8874L33.9183 52.9184L30.0422 54.6405L19.3283 30.5245L23.1606 28.8219ZM20.5399 24.22L24.3723 22.5174L25.005 23.9415L24.8172 24.025L28.3762 32.0359L27.4153 32.5061L24.3757 25.6642L21.7081 26.8494L20.5399 24.22ZM31.8064 23.5378L35.2226 31.2273L33.637 31.9318L32.6602 29.937L30.7109 30.8924L28.1626 25.1566L31.8064 23.5378ZM37.5826 14.9358L43.147 31.1951L40.598 32.1973L39.3521 29.3928L38.2616 29.8772L33.6139 16.2926L37.5826 14.9358ZM44.628 11.8058L48.5303 23.219L44.562 24.5765L40.6593 13.1625L44.628 11.8058ZM52.2367 10.7096L55.7824 22.808L52.9873 23.7644L52.3539 21.9113L51.2572 22.286L48.2122 11.8892L52.2367 10.7096ZM53.7636 26.0273L57.1949 24.853L62.4595 40.2386L59.1308 41.7174L53.7636 26.0273ZM46.8919 26.3075L50.8662 24.9486L56.9335 42.6936L53.0254 44.4298L46.8919 26.3075ZM44.9208 41.9865L44.9427 41.9768L44.7181 41.4712L41.882 34.2624L45.7876 32.7269L50.779 45.4278L46.9447 47.1313L44.9208 41.9865ZM34.3042 34.2533L38.1371 32.5504L42.5111 42.396L44.7557 48.1038L41.166 49.6986L34.3042 34.2533ZM36.1068 51.9462L27.7976 34.9835L31.2575 33.288L38.9797 50.6699L36.1068 51.9462ZM57.966 12.2383L66.8712 38.2786L64.6548 39.2633L58.6863 21.8144L58.0472 22.0332L55.432 13.1046L57.966 12.2383ZM67.4713 16.3097L73.0968 35.5128L69.1286 37.2757L63.4409 17.4907L67.4713 16.3097ZM76.5539 33.9769L75.2074 30.9461C74.6805 29.76 74.0263 28.6338 73.2701 27.5872L69.0944 13.3415L61.6215 15.5316L59.4537 9.20099L54.7579 10.8065L53.8607 7.74103L46.5033 9.89637L46.1161 8.76711L37.6199 11.6737L37.8408 12.3183L30.5772 14.8026L32.5577 20.5862L27.1921 22.9699L25.5881 19.3594L17.3832 23.0047L19.5226 27.8204L16.1715 29.3091L18.494 34.5369L10.848 39.1046L14.637 45.4463C13.6709 49.4289 14.0403 53.6468 15.7002 57.3832L17.0468 60.414L15.6483 61.0353L48.7146 99.3499L84.4912 83.4556L78.2267 33.2338L76.5542 33.9768" fill="#F0F0F0"/>
</g>
<defs>
<clipPath id="clip0_115_132">
<rect width="68.4818" height="84.6304" fill="white" transform="translate(0.952942 27.9623) rotate(-23.954)"/>
</clipPath>
</defs>
</svg>
