<svg width="18" height="23" viewBox="0 0 18 23" fill="none" xmlns="http://www.w3.org/2000/svg">
<path d="M18 12.375V20.25C18 20.8467 17.7629 21.419 17.341 21.841C16.919 22.2629 16.3467 22.5 15.75 22.5C15.1533 22.5 14.581 22.2629 14.159 21.841C13.7371 21.419 13.5 20.8467 13.5 20.25V14.625H11.25V3.375C11.25 2.47989 11.6056 1.62145 12.2385 0.988515C12.8714 0.355579 13.7299 0 14.625 0L18 0V12.375ZM2.25 11.25C1.65326 11.25 1.08097 11.0129 0.65901 10.591C0.237053 10.169 0 9.59674 0 9V1.125C0 0.826631 0.118526 0.540483 0.329505 0.329505C0.540483 0.118526 0.826631 0 1.125 0C1.42337 0 1.70952 0.118526 1.9205 0.329505C2.13147 0.540483 2.25 0.826631 2.25 1.125V5.625H3.375V1.125C3.375 0.826631 3.49353 0.540483 3.7045 0.329505C3.91548 0.118526 4.20163 0 4.5 0C4.79837 0 5.08452 0.118526 5.2955 0.329505C5.50647 0.540483 5.625 0.826631 5.625 1.125V5.625H6.75V1.125C6.75 0.826631 6.86853 0.540483 7.0795 0.329505C7.29048 0.118526 7.57663 0 7.875 0C8.17337 0 8.45952 0.118526 8.6705 0.329505C8.88147 0.540483 9 0.826631 9 1.125V9C9 9.59674 8.76295 10.169 8.34099 10.591C7.91903 11.0129 7.34674 11.25 6.75 11.25V20.25C6.75 20.8467 6.51295 21.419 6.09099 21.841C5.66903 22.2629 5.09674 22.5 4.5 22.5C3.90326 22.5 3.33097 22.2629 2.90901 21.841C2.48705 21.419 2.25 20.8467 2.25 20.25V11.25Z" fill="#F0F0F0"/>
</svg>
