<svg width="24" height="24" viewBox="0 0 22 22" fill="none" xmlns="http://www.w3.org/2000/svg">
<path fill-rule="evenodd" clip-rule="evenodd" d="M7.33333 2.44444H2.44444V7.33333H7.33333V2.44444ZM2.44444 0C1.09442 0 0 1.09442 0 2.44444V7.33333C0 8.68336 1.09442 9.77778 2.44444 9.77778H7.33333C8.68336 9.77778 9.77778 8.68336 9.77778 7.33333V2.44444C9.77778 1.09442 8.68336 0 7.33333 0H2.44444Z" fill="#242424"/>
<path fill-rule="evenodd" clip-rule="evenodd" d="M7.33333 14.6667H2.44444V19.5556H7.33333V14.6667ZM2.44444 12.2222C1.09442 12.2222 0 13.3166 0 14.6667V19.5556C0 20.9056 1.09442 22 2.44444 22H7.33333C8.68336 22 9.77778 20.9056 9.77778 19.5556V14.6667C9.77778 13.3166 8.68336 12.2222 7.33333 12.2222H2.44444Z" fill="#242424"/>
<path fill-rule="evenodd" clip-rule="evenodd" d="M19.5555 2.44444H14.6667V7.33333H19.5555V2.44444ZM14.6667 0C13.3166 0 12.2222 1.09442 12.2222 2.44444V7.33333C12.2222 8.68336 13.3166 9.77778 14.6667 9.77778H19.5555C20.9056 9.77778 22 8.68336 22 7.33333V2.44444C22 1.09442 20.9056 0 19.5555 0H14.6667Z" fill="#242424"/>
<path fill-rule="evenodd" clip-rule="evenodd" d="M14.6667 17.1111C14.6667 18.4611 15.7611 19.5556 17.1111 19.5556C18.4611 19.5556 19.5555 18.4611 19.5555 17.1111C19.5555 15.7611 18.4611 14.6667 17.1111 14.6667C15.7611 14.6667 14.6667 15.7611 14.6667 17.1111ZM17.1111 12.2222C14.411 12.2222 12.2222 14.4111 12.2222 17.1111C12.2222 19.8112 14.411 22 17.1111 22C19.8112 22 22 19.8112 22 17.1111C22 14.4111 19.8112 12.2222 17.1111 12.2222Z" fill="#ECAA37"/>
</svg>
