<svg width="14" height="15" viewBox="0 0 14 15" fill="none" xmlns="http://www.w3.org/2000/svg">
<path d="M9.26136 2.4697H12.9659C13.1297 2.4697 13.2867 2.53475 13.4025 2.65054C13.5183 2.76633 13.5833 2.92337 13.5833 3.08712C13.5833 3.25087 13.5183 3.40792 13.4025 3.52371C13.2867 3.6395 13.1297 3.70455 12.9659 3.70455H12.283L11.3544 12.0719C11.2705 12.827 10.9111 13.5247 10.345 14.0314C9.77878 14.5382 9.04564 14.8183 8.28583 14.8182H5.2975C4.5377 14.8183 3.80455 14.5382 3.23838 14.0314C2.67221 13.5247 2.31278 12.827 2.2289 12.0719L1.29906 3.70455H0.617424C0.453673 3.70455 0.296629 3.6395 0.180839 3.52371C0.06505 3.40792 0 3.25087 0 3.08712C0 2.92337 0.06505 2.76633 0.180839 2.65054C0.296629 2.53475 0.453673 2.4697 0.617424 2.4697H4.32197C4.32197 1.81469 4.58217 1.18652 5.04533 0.723357C5.50849 0.260199 6.13666 0 6.79167 0C7.44667 0 8.07485 0.260199 8.53801 0.723357C9.00116 1.18652 9.26136 1.81469 9.26136 2.4697V2.4697Z" fill="#FE1618"/>
<path d="M6.79167 1.23483C6.46417 1.23483 6.15008 1.36493 5.9185 1.59651C5.68692 1.82809 5.55682 2.14218 5.55682 2.46968H8.02652C8.02652 2.14218 7.89642 1.82809 7.66484 1.59651C7.43326 1.36493 7.11917 1.23483 6.79167 1.23483V1.23483Z" fill="#FE1618"/>
<path d="M4.93939 6.17425V11.1136C4.93939 11.2774 5.00444 11.4344 5.12023 11.5502C5.23602 11.666 5.39307 11.7311 5.55682 11.7311C5.72057 11.7311 5.87761 11.666 5.9934 11.5502C6.10919 11.4344 6.17424 11.2774 6.17424 11.1136V6.17425C6.17424 6.0105 6.10919 5.85345 5.9934 5.73766C5.87761 5.62187 5.72057 5.55682 5.55682 5.55682C5.39307 5.55682 5.23602 5.62187 5.12023 5.73766C5.00444 5.85345 4.93939 6.0105 4.93939 6.17425Z" fill="#FFFEFE"/>
<path d="M8.02651 5.55682C7.86276 5.55682 7.70572 5.62187 7.58993 5.73766C7.47414 5.85345 7.40909 6.0105 7.40909 6.17425V11.1136C7.40909 11.2774 7.47414 11.4344 7.58993 11.5502C7.70572 11.666 7.86276 11.7311 8.02651 11.7311C8.19026 11.7311 8.34731 11.666 8.4631 11.5502C8.57889 11.4344 8.64394 11.2774 8.64394 11.1136V6.17425C8.64394 6.0105 8.57889 5.85345 8.4631 5.73766C8.34731 5.62187 8.19026 5.55682 8.02651 5.55682Z" fill="#FFFEFE"/>
</svg>
