<svg width="90" height="91" viewBox="0 0 90 91" fill="none" xmlns="http://www.w3.org/2000/svg">
<path d="M88.6297 45.0167C88.6297 40.3188 90.9696 35.3329 89.5297 31.1031C88.0537 26.7112 83.0499 24.0113 80.296 20.3574C77.506 16.6675 76.3541 11.2857 72.5202 8.60374C68.7223 5.95782 63.0525 6.5518 58.4986 5.11185C54.0887 3.74389 49.8949 0 45.017 0C40.1392 0 35.9273 3.72589 31.5354 5.11185C26.9816 6.5338 21.2937 5.93982 17.4958 8.60374C13.662 11.2857 12.51 16.6675 9.72008 20.3574C6.94817 24.0113 1.96231 26.7112 0.46836 31.1031C-0.953598 35.3329 1.36833 40.3188 1.36833 45.0167C1.36833 49.7145 -0.971597 54.7004 0.46836 58.9302C1.94432 63.3221 6.94816 66.022 9.70208 69.6759C12.492 73.3658 13.644 78.7476 17.4778 81.4296C21.2757 84.0935 26.9456 83.4995 31.5174 84.9214C35.9273 86.2894 40.1212 90.0333 44.999 90.0333C49.8769 90.0333 54.0887 86.3074 58.4806 84.9214C63.0345 83.4995 68.7223 84.0935 72.5202 81.4296C76.3541 78.7476 77.506 73.3658 80.296 69.6759C83.0679 66.022 88.0537 63.3221 89.5297 58.9302C90.9696 54.6824 88.6297 49.6965 88.6297 45.0167Z" fill="#FFFEFE"/>
<path d="M84.3586 45.1034C84.3586 40.9215 86.4416 36.4832 85.1598 32.7179C83.8459 28.8084 79.3916 26.405 76.9401 23.1524C74.4566 19.8678 73.4312 15.077 70.0184 12.6896C66.6376 10.3343 61.5905 10.863 57.5367 9.58122C53.6112 8.3635 49.8779 5.03079 45.5358 5.03079C41.1936 5.03079 37.4443 8.34748 33.5348 9.58122C29.4811 10.847 24.4179 10.3183 21.0371 12.6896C17.6243 15.077 16.5989 19.8678 14.1154 23.1524C11.6479 26.405 7.20961 28.8084 5.87973 32.7179C4.61394 36.4832 6.68086 40.9215 6.68086 45.1034C6.68086 49.2853 4.59792 53.7236 5.87973 57.4889C7.19358 61.3984 11.6479 63.8018 14.0993 67.0544C16.5829 70.3391 17.6083 75.1298 21.0211 77.5172C24.4019 79.8886 29.449 79.3598 33.5188 80.6256C37.4443 81.8433 41.1776 85.176 45.5197 85.176C49.8619 85.176 53.6112 81.8593 57.5207 80.6256C61.5744 79.3598 66.6376 79.8886 70.0184 77.5172C73.4312 75.1298 74.4566 70.3391 76.9401 67.0544C79.4076 63.8018 83.8459 61.3984 85.1598 57.4889C86.4416 53.7076 84.3586 49.2693 84.3586 45.1034Z" fill="#FE1618"/>
</svg>
